Coordinates
version=1
nRows=22
nColumns=33
inDegrees=yes

Units are S.I. units (second, meters, Newtons, ...)
Angles are in degrees.

endheader
time	ground_thorax_rot_x	ground_thorax_rot_y	ground_thorax_rot_z	ground_thorax_tx	ground_thorax_ty	ground_thorax_tz	clav_prot_r	clav_elev_r	scapula_abduction_r	scapula_elevation_r	scapula_upward_rot_r	scapula_winging_r	shoulder_elv_r	plane_of_elev_r	axial_rot_r	elbow_flexion_r	pro_sup_r	wrist_flex_r	wrist_dev_r	clav_prot_l	clav_elev_l	scapula_abduction_l	scapula_elevation_l	scapula_upward_rot_l	scapula_winging_l	shoulder_elv_l	plane_of_elev_l	axial_rot_l	elbow_flexion_l	pro_sup_l	wrist_flex_l	wrist_dev_l	
3.1000	-38.977739	-2.880070	10.762219	-214.075909	842.274701	6.823585	8.936476	-45.000000	40.309196	-45.000000	-45.000000	-2977.704540	-1542.903605	143.137534	180.000000	730.268546	51.541524	25.372267	11.135680	15.855068	38.667258	-39.583187	-45.000000	-41.697857	4045.023949	-2806.939682	25.417253	-30.506467	730.679101	7.159168	4.638907	-20.115313	
3.1100	-38.958835	-2.711201	10.708140	-216.106016	843.120440	6.985603	8.988665	-45.000000	40.333867	-45.000000	-45.000000	-2977.871809	-1542.921592	143.226771	180.000000	730.209999	51.792716	25.422988	11.024600	15.809990	38.575527	-39.483469	-45.000000	-41.981649	4045.056125	-2806.841274	25.399330	-30.538695	730.742581	8.584058	4.284620	-20.106424	
3.1200	-38.946232	-2.553114	10.659268	-218.037362	843.913485	7.149869	9.029690	-45.000000	40.352803	-45.000000	-45.000000	-2978.031012	-1542.941400	143.312585	180.000000	730.150492	52.059315	25.471600	10.913456	15.762411	38.493981	-39.384953	-45.000000	-42.225359	4045.104562	-2806.765660	25.391329	-30.625344	730.812106	10.137167	3.922337	-20.085150	
3.1300	-38.937853	-2.405641	10.609285	-219.869213	844.658970	7.313822	9.067410	-45.000000	40.363765	-45.000000	-45.000000	-2978.175700	-1542.959029	143.396991	180.000000	730.097001	52.354754	25.513040	10.786320	15.717662	38.416256	-39.284676	-45.000000	-42.507262	4045.123487	-2806.660681	25.389362	-30.598232	730.897884	11.822238	3.582940	-20.056489	
3.1400	-38.937183	-2.273935	10.560480	-221.602464	845.360998	7.474928	9.087661	-45.000000	40.366581	-45.000000	-45.000000	-2978.306358	-1542.979022	143.476167	180.000000	730.043727	52.681315	25.553402	10.656463	15.661984	38.363178	-39.181163	-45.000000	-42.711728	4045.171854	-2806.592492	25.388513	-30.692811	730.986136	13.598162	3.244337	-20.015696	
3.1500	-38.941815	-2.157338	10.506757	-223.239380	846.022425	7.630978	9.105819	-45.000000	40.362883	-45.000000	-45.000000	-2978.422991	-1542.999677	143.550645	180.000000	730.001433	53.048184	25.594350	10.513219	15.606113	38.320388	-39.078486	-45.000000	-42.913886	4045.209454	-2806.518146	25.380822	-30.763803	731.084648	15.436507	2.918071	-19.964248	
3.1600	-38.955422	-2.055517	10.450616	-224.783795	846.644934	7.780303	9.107076	-45.000000	40.357314	-45.000000	-45.000000	-2978.522311	-1543.026857	143.626754	180.000000	729.961902	53.453632	25.634315	10.363065	15.535060	38.310830	-38.975371	-45.000000	-43.029598	4045.271498	-2806.476648	25.357806	-30.971651	731.190565	17.277632	2.606448	-19.906180	
3.1700	-38.971046	-1.965234	10.385284	-226.240221	847.229074	7.921787	9.114705	-45.000000	40.351406	-45.000000	-45.000000	-2978.612067	-1543.055483	143.698420	180.000000	729.935917	53.919750	25.680260	10.194861	15.475238	38.289783	-38.878132	-45.000000	-43.197177	4045.305382	-2806.410472	25.336991	-31.064870	731.308855	19.155370	2.307641	-19.837710	
3.1800	-38.988923	-1.882884	10.314360	-227.613918	847.774727	8.054812	9.119901	-45.000000	40.350388	-45.000000	-45.000000	-2978.694922	-1543.088757	143.770325	180.000000	729.912404	54.438385	25.732715	10.018595	15.417896	38.271013	-38.787977	-45.000000	-43.341326	4045.344208	-2806.358754	25.316653	-31.188763	731.433720	21.041725	2.011539	-19.754349	
3.1900	-39.002237	-1.806966	10.237380	-228.910099	848.281499	8.179032	9.138785	-45.000000	40.350531	-45.000000	-45.000000	-2978.779448	-1543.121107	143.836222	180.000000	729.894203	55.010439	25.795303	9.832365	15.380465	38.226484	-38.705086	-45.000000	-43.538195	4045.359832	-2806.294695	25.313506	-31.211822	731.564294	22.952249	1.712988	-19.650732	
3.2000	-39.018227	-1.738027	10.157447	-230.134094	848.749356	8.294195	9.147214	-45.000000	40.349950	-45.000000	-45.000000	-2978.852880	-1543.156830	143.910445	180.000000	729.874635	55.603106	25.852313	9.639179	15.333279	38.210539	-38.621805	-45.000000	-43.666206	4045.380207	-2806.249329	25.294198	-31.319723	731.701745	24.821214	1.437711	-19.545749	
3.2100	-39.030741	-1.679955	10.073215	-231.290851	849.178971	8.399911	9.163855	-45.000000	40.344383	-45.000000	-45.000000	-2978.925152	-1543.191843	143.979262	180.000000	729.855846	56.217425	25.910998	9.441428	15.299219	38.181886	-38.538978	-45.000000	-43.824232	4045.384810	-2806.196521	25.287962	-31.364760	731.838387	26.659597	1.175116	-19.430425	
3.2200	-39.048125	-1.626333	9.980206	-232.385119	849.571948	8.495527	9.165541	-45.000000	40.333274	-45.000000	-45.000000	-2978.983166	-1543.228410	144.055779	180.000000	729.836192	56.819011	25.959822	9.241704	15.248921	38.193451	-38.449194	-45.000000	-43.881015	4045.392814	-2806.166588	25.254014	-31.516263	731.971656	28.397042	0.946783	-19.320839	
3.2300	-39.061748	-1.582748	9.884761	-233.421585	849.930832	8.580056	9.175389	-45.000000	40.324456	-45.000000	-45.000000	-2979.045141	-1543.265392	144.127146	180.000000	729.811686	57.417926	26.014910	9.050739	15.212190	38.185406	-38.364903	-45.000000	-43.960503	4045.399325	-2806.147384	25.238164	-31.641661	732.094577	30.052296	0.725744	-19.194581	
3.2400	-39.081481	-1.544102	9.780698	-234.404999	850.258756	8.652195	9.173621	-45.000000	40.319164	-45.000000	-45.000000	-2979.094297	-1543.305377	144.208896	180.000000	729.786734	57.996358	26.062168	8.861138	15.164878	38.200544	-38.283878	-45.000000	-44.003458	4045.397024	-2806.129056	25.200845	-31.775562	732.219433	31.617910	0.542333	-19.077139	
3.2500	-39.100266	-1.506024	9.662265	-235.340315	850.559021	8.710427	9.184057	-45.000000	40.321831	-45.000000	-45.000000	-2979.148205	-1543.347280	144.285362	180.000000	729.761734	58.566857	26.122708	8.682328	15.136564	38.179690	-38.214459	-45.000000	-44.106140	4045.372407	-2806.098163	25.180847	-31.773985	732.340870	33.152818	0.357510	-18.944154	
3.2600	-39.121829	-1.469364	9.533889	-236.232627	850.834556	8.753211	9.195263	-45.000000	40.324262	-45.000000	-45.000000	-2979.198998	-1543.389634	144.362250	180.000000	729.730661	59.108697	26.185641	8.515715	15.110367	38.158814	-38.150853	-45.000000	-44.201905	4045.336846	-2806.065106	25.156890	-31.740060	732.461363	34.661447	0.180769	-18.805420	
3.2700	-39.143718	-1.437418	9.395527	-237.086872	851.087573	8.779250	9.212336	-45.000000	40.323999	-45.000000	-45.000000	-2979.252977	-1543.435073	144.430429	180.000000	729.691612	59.613045	26.259145	8.370070	15.092881	38.120166	-38.090997	-45.000000	-44.305087	4045.299048	-2806.038816	25.146377	-31.669899	732.572480	36.145966	0.001480	-18.651704	
3.2800	-39.170423	-1.411646	9.248808	-237.907364	851.319355	8.787770	9.221820	-45.000000	40.316394	-45.000000	-45.000000	-2979.299968	-1543.483191	144.496317	180.000000	729.645311	60.057135	26.331533	8.242687	15.066701	38.096039	-38.029151	-45.000000	-44.367902	4045.263370	-2806.018755	25.126815	-31.622156	732.677129	37.576597	-0.155910	-18.502103	
3.2900	-39.198800	-1.389746	9.087305	-238.696861	851.530176	8.778770	9.227311	-45.000000	40.304270	-45.000000	-45.000000	-2979.344303	-1543.535693	144.553856	180.000000	729.593064	60.432094	26.412174	8.138967	15.039462	38.067884	-37.961197	-45.000000	-44.396395	4045.228254	-2806.011813	25.110433	-31.573213	732.768756	38.926726	-0.299852	-18.349829	
3.3000	-39.224798	-1.379384	8.927082	-239.456539	851.719545	8.753096	9.232790	-45.000000	40.290343	-45.000000	-45.000000	-2979.387694	-1543.591157	144.607349	180.000000	729.525059	60.739239	26.494785	8.059851	15.015409	38.034649	-37.891744	-45.000000	-44.422707	4045.199917	-2806.011675	25.106001	-31.531537	732.852894	40.196090	-0.429102	-18.197221	
3.3100	-39.247312	-1.383061	8.767245	-240.185714	851.886390	8.712390	9.239014	-45.000000	40.278566	-45.000000	-45.000000	-2979.431473	-1543.652485	144.656928	180.000000	729.446009	60.986286	26.582825	8.004394	14.997359	37.987137	-37.823301	-45.000000	-44.463034	4045.177595	-2806.018910	25.116478	-31.474978	732.931915	41.392570	-0.548642	-18.044365	
